<svg xmlns="http://www.w3.org/2000/svg" fill="none" viewBox="0 0 94 36" height="36" width="94">
<path fill="#000072" d="M33.0115 12.3994H42.0713C42.3867 12.3994 42.6423 12.6548 42.6423 12.97V34.9363C42.6423 35.2514 42.3867 35.5068 42.0713 35.5068H33.0115C32.6961 35.5068 32.4404 35.2514 32.4404 34.9363V12.97C32.4404 12.6548 32.6961 12.3994 33.0115 12.3994Z"></path>
<path fill="#000072" d="M87.2667 35.9937C82.2256 35.8652 76.7744 32.8762 76.7744 25.62V13.1009C76.7744 12.791 76.9337 12.5029 77.1965 12.3381L86.3237 3.97138C86.6092 3.79257 86.9801 3.99752 86.9801 4.33425V11.9658C86.9801 12.1978 87.1684 12.3859 87.4006 12.3859H92.8264C93.1933 12.3859 93.4907 12.683 93.4907 13.0495V19.214C93.4907 19.5805 93.1933 19.8776 92.8264 19.8776H87.3869C87.1624 19.8776 86.9801 20.0595 86.9801 20.2841V24.881C86.9801 26.8317 88.7354 27.682 90.6207 27.682C91.2133 27.682 92.1121 27.5556 92.7391 27.3478C93.1093 27.2251 93.4909 27.4983 93.4909 27.888V33.8764C93.4909 34.1391 93.3386 34.3687 93.1104 34.4994C91.7812 35.2604 90.786 36.0832 87.2668 35.9935L87.2667 35.9937Z"></path>
<path fill="#000072" d="M37.594 0C40.7745 0 43.2594 1.80818 43.2594 4.62057C43.2594 7.43314 40.7745 9.24133 37.594 9.24133C34.3141 9.24133 31.8291 7.43314 31.8291 4.62057C31.8291 1.80818 34.3141 0 37.594 0Z"></path>
<path fill="#000072" d="M59.7035 18.4351C57.243 18.4351 54.531 20.0816 54.531 23.2695V34.974C54.531 35.2891 54.2754 35.5445 53.96 35.5445H44.9001C44.5847 35.5445 44.3291 35.2891 44.3291 34.974V13.0077C44.3291 12.6925 44.5847 12.4371 44.9001 12.4371H53.96C54.2754 12.4371 54.531 12.6925 54.531 13.0077V15.1615C54.531 15.1629 54.531 15.1644 54.531 15.1658C54.5341 15.3557 54.7903 15.4554 54.9111 15.3087C54.9111 15.3087 58.5609 11.937 64.4976 11.937C69.0998 11.937 75.078 14.4096 75.078 21.3526V34.9742C75.078 35.2893 74.8224 35.5447 74.507 35.5447H65.4471C65.1317 35.5447 64.8761 35.2893 64.8761 34.9742V23.2697C64.8761 20.1406 63.0137 18.4353 59.7036 18.4353L59.7035 18.4351Z"></path>
<path fill="#000072" d="M15.3745 18.3751C12.914 18.3751 10.2021 20.0216 10.2021 23.2096V34.914C10.2021 35.2291 9.94647 35.4846 9.63107 35.4846H0.571022C0.255625 35.4846 0 35.2291 0 34.914V1.0764C0 0.761267 0.255625 0.505859 0.571022 0.505859H9.63089C9.94629 0.505859 10.2019 0.761267 10.2019 1.0764V15.1015C10.2019 15.1029 10.2019 15.1044 10.2019 15.1058C10.205 15.2957 10.4612 15.3954 10.582 15.2487C10.582 15.2487 14.2318 11.877 20.1685 11.877C24.7707 11.877 30.7489 14.3496 30.7489 21.2926V34.9142C30.7489 35.2293 30.4933 35.4847 30.1779 35.4847H21.118C20.8026 35.4847 20.547 35.2293 20.547 34.9142V23.2097C20.547 20.0806 18.6846 18.3751 15.3745 18.3751Z"></path>
</svg>
